<svg width="28" height="42" viewBox="0 0 28 42" fill="none" xmlns="http://www.w3.org/2000/svg">
  <!-- Bottom/Base Layer (Dark Blue) -->
  <rect width="28" height="42" rx="3.5" fill="#124d86"/>
  <!-- Top Layer (Light Blue) -->
  <path d="M0 3.5 C0 1.567 1.567 0 3.5 0 L24.5 0 C26.433 0 28 1.567 28 3.5 L28 26 C24 23 18 24 13 27 C8 30 3 29 0 26 Z" fill="#78aac9"/>
  <!-- Ship Silhouette -->
  <path d="M0 11 L3.5 11 L3.5 15 L7 15 L7 19 L11.5 19 C12.5 19 12.5 24 11.5 28 C8 29.5 3 28 0 26 Z" fill="white"/>
  <!-- Wave Line Separator -->
  <path d="M0 26 C3 29 8 30 13 27 C18 24 24 23 28 26" stroke="white" stroke-width="2" fill="none"/>
</svg>
